<svg xmlns="http://www.w3.org/2000/svg" viewBox="0 0 600 360" width="100%" height="100%">
  <defs>
    <linearGradient id="p1Grad" x1="0%" y1="0%" x2="100%" y2="100%">
      <stop offset="0%" stop-color="#0b131e"/>
      <stop offset="100%" stop-color="#070c14"/>
    </linearGradient>
  </defs>
  <rect width="600" height="360" rx="16" fill="url(#p1Grad)" stroke="#1e293b" stroke-width="1.5"/>
  <path d="M 0 60 H 600 M 0 120 H 600 M 0 180 H 600 M 0 240 H 600 M 0 300 H 600" stroke="#334155" stroke-width="1" stroke-opacity="0.2"/>
  
  <!-- Map Pack & Local Node Mockup -->
  <rect x="40" y="45" width="240" height="270" rx="12" fill="#111a28" stroke="#334155" stroke-width="1.5"/>
  <rect x="55" y="65" width="80" height="12" rx="4" fill="#00e5a3"/>
  <rect x="55" y="85" width="210" height="8" rx="3" fill="#334155"/>
  <rect x="55" y="100" width="160" height="8" rx="3" fill="#1e293b"/>
  
  <!-- Map Pin & Radius -->
  <circle cx="160" cy="180" r="50" fill="#00e5a3" fill-opacity="0.08" stroke="#00e5a3" stroke-width="1" stroke-dasharray="4 2"/>
  <circle cx="160" cy="180" r="30" fill="#00e5a3" fill-opacity="0.15"/>
  <circle cx="160" cy="180" r="8" fill="#00e5a3"/>
  <path d="M 160 172 C 154 172 150 176 150 182 C 150 190 160 200 160 200 C 160 200 170 190 170 182 C 170 176 166 172 160 172 Z" fill="#00e5a3"/>

  <!-- Local Citation Cards -->
  <rect x="55" y="245" width="210" height="24" rx="6" fill="#1e293b" stroke="#334155" stroke-width="1"/>
  <text x="70" y="261" fill="#94a3b8" font-family="monospace" font-size="10">GBP: Local Map Pack Target</text>
  <circle cx="245" cy="257" r="4" fill="#00e5a3"/>
  
  <rect x="55" y="277" width="210" height="24" rx="6" fill="#1e293b" stroke="#334155" stroke-width="1"/>
  <text x="70" y="293" fill="#94a3b8" font-family="monospace" font-size="10">Entity Schema: LocalBusiness</text>
  <circle cx="245" cy="289" r="4" fill="#38bdf8"/>

  <!-- AI & GEO Node Network on Right -->
  <rect x="310" y="45" width="250" height="270" rx="12" fill="#111824" stroke="#334155" stroke-width="1.5"/>
  <text x="330" y="75" fill="#f8fafc" font-family="sans-serif" font-weight="700" font-size="13">Generative Engine Synthesis</text>
  
  <!-- Query Box -->
  <rect x="330" y="95" width="210" height="40" rx="8" fill="#0b131e" stroke="#1e293b"/>
  <text x="342" y="112" fill="#64748b" font-family="monospace" font-size="9">Query: "Best strength gym in..."</text>
  <text x="342" y="126" fill="#38bdf8" font-family="monospace" font-size="9">> Citation match found [1]</text>

  <!-- Extracted Entity Summary Box -->
  <rect x="330" y="148" width="210" height="95" rx="8" fill="#09101a" stroke="#00e5a3" stroke-width="1" stroke-dasharray="3 3"/>
  <text x="342" y="170" fill="#00e5a3" font-family="monospace" font-size="10" font-weight="700">Source [1]: Olympia (Demo)</text>
  <text x="342" y="188" fill="#94a3b8" font-family="sans-serif" font-size="9">• Geo-Entity: Strength &amp; Conditioning</text>
  <text x="342" y="204" fill="#94a3b8" font-family="sans-serif" font-size="9">• Knowledge Graph Alignment</text>
  <text x="342" y="220" fill="#94a3b8" font-family="sans-serif" font-size="9">• Citability Model: Authoritative</text>

  <rect x="330" y="255" width="210" height="46" rx="8" fill="#1e293b"/>
  <text x="342" y="273" fill="#f1f5f9" font-family="sans-serif" font-size="11" font-weight="600">GBP Action Growth Strategy</text>
  <text x="342" y="289" fill="#00e5a3" font-family="monospace" font-size="10">High-Intent Local Discovery</text>
</svg>
